<svg width="182" height="131" viewBox="0 0 182 131" fill="none" xmlns="http://www.w3.org/2000/svg">
<path d="M43.1 93.2365C43.02 93.2765 42.99 93.3664 42.99 93.5164C42.28 94.9364 40.89 96.4764 38.8 98.1564C36.53 99.9464 34.67 100.836 33.21 100.836C31.57 100.836 30.75 99.5564 30.75 96.9865C30.75 96.2465 31.1 94.6064 31.81 92.0664C29.98 94.8364 28.57 96.7565 27.56 97.8065C25.59 99.8265 23.52 100.846 21.36 100.846C19.68 100.846 18.37 100.266 17.42 99.1064C16.47 97.9464 16 96.4965 16 94.7365C16 90.7064 17.69 86.5665 21.08 82.3065C24.66 77.8665 28.42 75.6465 32.37 75.6465C33.34 75.6465 34.45 75.9165 35.69 76.4565C36.94 76.9965 37.52 77.2664 37.45 77.2664C37.67 77.2664 38.14 77.0065 38.85 76.4865C39.45 76.0065 39.87 75.6265 40.13 75.3665L41.97 75.4265L36.38 93.7464C36.12 94.5664 35.99 95.2765 35.99 95.8665C35.99 96.4665 36.16 96.7465 36.49 96.7065C37.42 96.6365 38.59 95.9364 40.01 94.6064C41.43 93.2864 42.21 92.6264 42.36 92.6264C42.86 92.6264 43.1 92.8265 43.1 93.2365ZM35.11 79.7765C35.11 77.9165 34.31 76.9865 32.71 76.9865C30.77 76.9865 28.39 79.5165 25.56 84.5865C22.92 89.3565 21.59 92.8364 21.59 95.0364C21.59 96.8264 22.37 97.7164 23.94 97.7164C26.14 97.7164 28.6 95.2564 31.31 90.3464C33.85 85.7464 35.11 82.2265 35.11 79.7765Z" fill="#00377B"/>
<path d="M78.58 80.8864C78.58 84.9864 76.77 89.2664 73.16 93.7364C69.4 98.4664 65.53 100.836 61.54 100.836C58.93 100.836 56.96 99.6664 55.62 97.3164C54.28 98.0964 52.94 98.8764 51.6 99.6664C50 100.446 48.49 100.836 47.07 100.836C45.24 100.836 43.82 100.316 42.8 99.2764C41.78 98.2364 41.26 96.7964 41.26 94.9764C41.26 92.8164 42.32 90.2864 44.44 87.3764C46.26 85.2164 48.09 83.0364 49.92 80.8364C49.32 80.7664 48.46 80.4564 47.32 79.9164C46.18 79.3764 45.41 79.1064 45 79.1064C44.37 79.1064 44.05 79.3464 44.05 79.8364C44.05 79.9864 44.23 80.4064 44.58 81.0964C44.93 81.7864 45.11 82.3764 45.11 82.8564C45.11 84.1564 44.42 84.8164 43.04 84.8164C42.37 84.8164 41.84 84.5264 41.45 83.9464C41.06 83.3664 40.86 82.7264 40.86 82.0164C40.86 80.1564 41.52 78.6564 42.84 77.5164C44.16 76.3764 45.75 75.8164 47.62 75.8164C48.22 75.8164 49.09 75.8664 50.25 75.9564C51.4 76.0464 52.26 76.0964 52.82 76.0964C53.83 76.0964 54.64 76.0064 55.28 75.8164C49.58 84.0564 46.73 89.5764 46.73 92.3864C46.73 93.6264 47.03 94.6364 47.62 95.4164C48.25 96.3564 49.17 96.8164 50.36 96.8164C51.22 96.8164 52.72 96.2764 54.88 95.1964C54.73 94.8564 54.66 94.0964 54.66 92.9064C54.66 89.5564 55.39 86.1264 56.84 82.6264C58.66 78.2664 60.97 76.0864 63.77 76.0864C64.81 76.0864 65.63 76.4564 66.23 77.2064C66.83 77.9564 67.12 78.8864 67.12 79.9964C67.12 83.1664 64.74 87.5064 59.97 93.0164C61.12 95.3264 62.88 96.4764 65.22 96.4764C67.27 96.4764 69.28 95.3664 71.25 93.1564C73.22 90.9364 74.21 88.8064 74.21 86.7564C74.21 85.8664 73.9 84.5764 73.29 82.9064C72.68 81.2364 72.37 79.9664 72.37 79.1064C72.37 76.7564 73.21 75.5864 74.88 75.5864C76.15 75.5864 77.11 76.1864 77.79 77.3764C78.32 78.3364 78.58 79.5164 78.58 80.8864ZM63.61 82.2864C63.61 80.4964 62.98 79.6064 61.71 79.6064C60.67 79.6064 59.9 80.4064 59.42 82.0064C59.05 83.1564 58.86 84.4264 58.86 85.8064C58.86 87.2964 59.05 88.9764 59.42 90.8364C62.21 87.9664 63.61 85.1164 63.61 82.2864Z" fill="#00377B"/>
<path d="M101.87 93.2365C101.79 93.2765 101.76 93.3664 101.76 93.5164C101.05 94.9364 99.66 96.4764 97.57 98.1564C95.3 99.9464 93.44 100.836 91.98 100.836C90.34 100.836 89.52 99.5564 89.52 96.9865C89.52 96.2465 89.87 94.6064 90.58 92.0664C88.75 94.8364 87.34 96.7565 86.33 97.8065C84.36 99.8265 82.29 100.846 80.13 100.846C78.45 100.846 77.14 100.266 76.19 99.1064C75.24 97.9464 74.77 96.4965 74.77 94.7365C74.77 90.7064 76.46 86.5665 79.85 82.3065C83.43 77.8665 87.19 75.6465 91.14 75.6465C92.11 75.6465 93.22 75.9165 94.46 76.4565C95.71 76.9965 96.29 77.2664 96.22 77.2664C96.44 77.2664 96.91 77.0065 97.62 76.4865C98.22 76.0065 98.64 75.6265 98.9 75.3665L100.74 75.4265L95.15 93.7464C94.89 94.5664 94.76 95.2765 94.76 95.8665C94.76 96.4665 94.93 96.7465 95.26 96.7065C96.19 96.6365 97.36 95.9364 98.78 94.6064C100.2 93.2864 100.98 92.6264 101.13 92.6264C101.63 92.6264 101.87 92.8265 101.87 93.2365ZM93.88 79.7765C93.88 77.9165 93.08 76.9865 91.48 76.9865C89.54 76.9865 87.16 79.5165 84.33 84.5865C81.69 89.3565 80.36 92.8364 80.36 95.0364C80.36 96.8264 81.14 97.7164 82.71 97.7164C84.91 97.7164 87.37 95.2564 90.08 90.3464C92.62 85.7464 93.88 82.2265 93.88 79.7765Z" fill="#00377B"/>
<path d="M125.9 93.5165C125.19 94.9665 123.81 96.5165 121.77 98.1565C119.61 99.9465 117.78 100.836 116.3 100.836C114.4 100.836 113.45 99.6865 113.45 97.3765C113.45 96.3365 113.65 95.2165 114.06 94.0265L118.03 83.0765C118.37 82.1465 118.53 81.3865 118.53 80.7865C118.53 79.9265 118.18 79.5065 117.47 79.5065C115.61 79.5065 113.2 82.1465 110.26 87.4365C107.69 92.0565 105.88 96.2965 104.84 100.176H99.7L104.9 83.0765C105.16 82.1865 105.29 81.5265 105.29 81.1165C105.29 80.4465 105.01 80.1065 104.45 80.1065C103.82 80.1065 102.95 80.9765 101.85 82.7065C100.75 84.4365 100.03 85.3065 99.7 85.3065C99.14 85.3065 98.86 85.1065 98.86 84.6965V84.4165C101.62 78.7965 104.41 75.9765 107.24 75.9765C109.4 75.9765 110.48 77.0965 110.48 79.3265C110.48 80.3365 110.29 81.5765 109.92 83.0665C109.58 84.2965 109.25 85.5065 108.91 86.6965C111.03 83.4165 112.63 81.1465 113.71 79.8765C116.09 77.1165 118.29 75.7465 120.3 75.7465C122.72 75.7465 123.93 76.8265 123.93 78.9865C123.93 80.5465 123.32 83.0065 122.09 86.3565C121.12 88.8165 120.17 91.2765 119.24 93.7265C118.87 94.7365 118.68 95.4365 118.68 95.8465C118.68 96.4065 118.94 96.6865 119.46 96.6865C120.39 96.6865 121.54 96.0065 122.9 94.6465C124.26 93.2865 125 92.6065 125.11 92.6065C125.63 92.6065 125.89 92.8265 125.89 93.2765V93.5165H125.9Z" fill="#00377B"/>
<path d="M129.27 50.2865C127.63 50.2265 126.01 50.4265 124.39 50.6565C121.81 51.0265 120.85 50.3465 120.49 47.9365C119 37.9065 113.77 30.1565 104.41 25.0365C88.9099 16.5665 68.6199 21.9965 60.0999 36.8065C58.4199 39.7265 58.0899 39.8565 54.7899 38.9665C39.3499 34.7865 23.5499 44.5465 21.4199 59.6065C21.2499 60.8365 20.9399 61.9265 19.5399 62.3565C17.3999 63.0065 15.7299 61.5165 16.0499 59.2165C16.5299 55.7765 17.4799 52.4365 19.2399 49.3765C25.3199 38.8165 34.8299 33.3565 47.5699 32.9365C49.5799 32.8665 51.6499 33.0165 53.6099 33.5365C55.1199 33.9365 55.9099 33.5565 56.7699 32.3165C62.8199 23.5965 71.2999 18.2765 82.2499 16.5065C101.59 13.3965 120.24 24.9065 124.94 42.8565C125.6 45.3765 124.95 45.2865 128.22 45.2265C147.19 44.8865 162.73 57.2465 165.49 74.8365C168.16 91.8965 155.8 108.826 137.89 112.666C135.58 113.166 133.27 113.656 130.9 113.826C130.23 113.876 129.54 113.947 128.87 113.896C127.22 113.786 126.17 112.756 126.2 111.356C126.23 109.936 127.25 108.946 128.92 108.886C132.74 108.756 136.42 108.006 139.99 106.786C153.33 102.226 161.32 89.9265 160.4 77.4965C159.32 63.0265 147.43 52.8665 134.33 50.6565C132.65 50.3865 130.97 50.2365 129.27 50.2865Z" fill="#4AA147"/>
<path d="M87.3899 46.0265C73.8399 46.0365 64.9399 54.2565 64.6899 64.6265C64.6799 64.9965 64.6899 65.3765 64.6399 65.7365C64.4099 67.2065 63.3599 68.0865 61.9099 68.0365C60.4799 67.9965 59.4399 67.0565 59.3299 65.5765C59.1699 63.3865 59.4599 61.2165 60.0999 59.1265C63.0699 49.4465 69.7399 43.1964 80.3099 41.4064C90.9199 39.6064 99.5999 43.1365 105.97 51.3765C106.82 52.4865 107.57 52.8365 109.02 52.5465C112.75 51.8165 116.31 52.4565 119.6 54.2965C121.3 55.2465 121.82 56.6865 121.01 58.0165C120.26 59.2565 118.72 59.5265 117 58.7065C111.01 55.8865 106.12 57.3364 102.81 62.9364C101.94 64.4064 100.57 64.9365 99.1699 64.3265C97.7499 63.7165 97.2999 62.2765 98.0399 60.6665C98.8199 58.9965 99.8699 57.4865 101.35 56.2965C102.23 55.5865 102.21 54.9964 101.55 54.1564C97.3899 48.8464 91.8499 46.0865 87.3899 46.0265Z" fill="#4AA147"/>
<path d="M17.49 113.966C17.1 113.966 16.83 113.886 16.69 113.716C16.55 113.556 16.47 113.266 16.47 112.846C16.47 112.716 16.49 112.216 16.54 111.356C16.58 110.496 16.6 109.696 16.6 108.956C16.6 107.576 16.49 106.626 16.26 106.096C16.75 105.856 17.26 105.736 17.78 105.736C18.16 105.736 18.42 105.816 18.58 105.966C18.74 106.116 18.82 106.386 18.82 106.756C18.82 106.886 18.8 107.366 18.75 108.206C18.7 109.046 18.67 109.826 18.67 110.536C18.67 112.026 18.79 113.046 19.03 113.596C18.53 113.846 18.01 113.966 17.49 113.966Z" fill="#4AA147"/>
<path d="M26.36 113.647C25.94 113.857 25.5 113.957 25.05 113.957C24.75 113.957 24.54 113.897 24.42 113.767C24.29 113.647 24.23 113.437 24.23 113.147C24.23 112.957 24.24 112.627 24.27 112.177C24.29 111.727 24.3 111.367 24.3 111.117C24.3 110.567 24.23 110.177 24.1 109.947C23.96 109.697 23.71 109.577 23.35 109.577C23.02 109.577 22.66 109.717 22.27 109.977C22.24 110.957 22.22 111.507 22.22 111.647C22.22 112.587 22.31 113.256 22.5 113.656C22.07 113.866 21.63 113.966 21.19 113.966C20.88 113.966 20.67 113.896 20.55 113.746C20.43 113.606 20.37 113.357 20.37 113.007C20.37 112.857 20.39 112.477 20.44 111.867C20.48 111.257 20.5 110.727 20.5 110.267C20.5 109.357 20.41 108.707 20.23 108.327C20.58 108.217 20.89 108.167 21.16 108.167C21.82 108.167 22.18 108.427 22.22 108.957C22.84 108.437 23.45 108.167 24.08 108.167C24.79 108.167 25.3 108.367 25.61 108.777C25.92 109.177 26.07 109.807 26.07 110.677C26.07 110.837 26.07 111.037 26.06 111.277C26.05 111.517 26.05 111.687 26.05 111.767C26.05 112.687 26.14 113.307 26.33 113.637V113.647H26.36Z" fill="#4AA147"/>
<path d="M33.46 113.647C33.04 113.857 32.6 113.957 32.15 113.957C31.85 113.957 31.64 113.897 31.52 113.767C31.39 113.647 31.33 113.437 31.33 113.147C31.33 112.957 31.34 112.627 31.37 112.177C31.39 111.727 31.4 111.367 31.4 111.117C31.4 110.567 31.33 110.177 31.2 109.947C31.06 109.697 30.81 109.577 30.45 109.577C30.12 109.577 29.76 109.717 29.37 109.977C29.34 110.957 29.32 111.507 29.32 111.647C29.32 112.587 29.41 113.256 29.6 113.656C29.17 113.866 28.73 113.966 28.29 113.966C27.98 113.966 27.77 113.896 27.65 113.746C27.53 113.606 27.47 113.357 27.47 113.007C27.47 112.857 27.49 112.477 27.54 111.867C27.58 111.257 27.6 110.727 27.6 110.267C27.6 109.357 27.51 108.707 27.33 108.327C27.68 108.217 27.99 108.167 28.26 108.167C28.92 108.167 29.28 108.427 29.32 108.957C29.94 108.437 30.55 108.167 31.18 108.167C31.89 108.167 32.4 108.367 32.71 108.777C33.02 109.177 33.17 109.807 33.17 110.677C33.17 110.837 33.17 111.037 33.16 111.277C33.15 111.517 33.15 111.687 33.15 111.767C33.15 112.687 33.24 113.307 33.43 113.637V113.647H33.46Z" fill="#4AA147"/>
<path d="M39.93 112.946C39.29 113.716 38.44 114.096 37.39 114.096C36.47 114.096 35.72 113.826 35.14 113.276C34.56 112.736 34.28 112.036 34.28 111.176C34.28 110.286 34.59 109.556 35.21 108.976C35.83 108.396 36.62 108.106 37.59 108.106C38.49 108.106 39.22 108.376 39.79 108.916C40.36 109.456 40.64 110.136 40.64 110.966C40.64 111.716 40.4 112.376 39.93 112.946ZM36.45 112.176C36.71 112.446 37.05 112.576 37.47 112.576C37.87 112.576 38.2 112.436 38.47 112.156C38.74 111.866 38.88 111.506 38.88 111.076C38.88 110.626 38.75 110.266 38.49 109.996C38.23 109.726 37.89 109.596 37.47 109.596C37.05 109.596 36.71 109.736 36.45 110.016C36.18 110.296 36.05 110.666 36.05 111.136C36.06 111.566 36.19 111.916 36.45 112.176Z" fill="#4AA147"/>
<path d="M46.36 108.167C46.68 108.167 46.9201 108.267 47.1001 108.457C47.2701 108.647 47.36 108.917 47.36 109.267C47.36 110.377 46.84 111.577 45.8 112.867C45.15 113.677 44.5201 114.087 43.9101 114.087C43.5001 114.087 43.1901 113.907 42.9701 113.547C42.8401 113.337 42.6401 112.807 42.3701 111.957C41.9001 110.477 41.4601 109.597 41.0601 109.307C41.4701 108.587 41.9201 108.227 42.4001 108.227C42.7001 108.227 42.9501 108.397 43.1301 108.737C43.2501 108.967 43.4201 109.477 43.6501 110.267C43.8801 111.107 44.03 111.587 44.08 111.727C44.2 112.057 44.31 112.227 44.42 112.227C44.51 112.227 44.6501 112.097 44.8201 111.827C45.3001 111.117 45.5301 110.397 45.5301 109.667C45.5301 109.247 45.4101 108.887 45.1801 108.607C45.5301 108.317 45.92 108.167 46.36 108.167Z" fill="#4AA147"/>
<path d="M52.2701 113.956C51.83 113.956 51.59 113.746 51.54 113.316C51.03 113.796 50.4701 114.026 49.8801 114.026C49.3301 114.026 48.88 113.866 48.55 113.556C48.22 113.246 48.05 112.836 48.05 112.336C48.05 111.726 48.28 111.246 48.73 110.886C49.2 110.526 49.8401 110.346 50.6501 110.346C50.8801 110.346 51.1601 110.366 51.5001 110.416V110.206C51.5001 109.916 51.4 109.686 51.2 109.526C50.99 109.356 50.7001 109.276 50.3201 109.276C49.6901 109.276 49.22 109.486 48.92 109.906C48.62 109.756 48.4601 109.546 48.4601 109.266C48.4601 108.936 48.6501 108.666 49.0301 108.456C49.4301 108.236 49.98 108.126 50.67 108.126C51.52 108.126 52.1301 108.306 52.5201 108.676C52.91 109.036 53.1001 109.616 53.1001 110.406L53.0901 110.856C53.0801 111.136 53.08 111.406 53.08 111.666C53.08 112.586 53.2 113.216 53.45 113.566C53.02 113.826 52.62 113.956 52.2701 113.956ZM51.48 111.346C51.26 111.306 51.0601 111.296 50.8701 111.296C50.4801 111.296 50.1801 111.376 49.9701 111.526C49.7601 111.676 49.6601 111.876 49.6601 112.146C49.6601 112.376 49.7301 112.546 49.8801 112.686C50.0201 112.816 50.22 112.886 50.48 112.886C50.85 112.886 51.1901 112.726 51.5001 112.416C51.4901 112.296 51.4901 112.066 51.4901 111.726V111.346H51.48Z" fill="#4AA147"/>
<path d="M57.73 108.406C58.08 108.406 58.25 108.546 58.25 108.836C58.25 109.076 58.15 109.346 57.94 109.666C57.79 109.606 57.57 109.576 57.3 109.576L57.08 109.586C56.92 109.596 56.76 109.606 56.61 109.606C56.55 110.356 56.52 110.956 56.52 111.406C56.52 112.256 56.75 112.676 57.2 112.676C57.36 112.676 57.51 112.616 57.66 112.496C57.83 112.716 57.91 112.936 57.91 113.136C57.91 113.396 57.79 113.606 57.54 113.756C57.29 113.916 56.93 113.996 56.48 113.996C55.34 113.996 54.77 113.376 54.77 112.136C54.77 111.916 54.79 111.556 54.83 111.036C54.87 110.436 54.9 109.976 54.91 109.636C54.73 109.656 54.57 109.676 54.44 109.676C54.06 109.676 53.87 109.526 53.87 109.226C53.87 109.036 53.94 108.806 54.07 108.516C54.19 108.536 54.34 108.556 54.51 108.556C54.59 108.556 54.75 108.546 54.97 108.536L54.98 108.206C54.98 107.676 54.9 107.246 54.75 106.936C55.2 106.716 55.6 106.606 55.95 106.606C56.48 106.606 56.74 106.876 56.74 107.406C56.74 107.466 56.71 107.816 56.66 108.466C57.46 108.436 57.81 108.406 57.73 108.406Z" fill="#4AA147"/>
<path d="M59.9101 113.956C59.6101 113.956 59.4101 113.886 59.2801 113.756C59.1601 113.626 59.1001 113.406 59.1001 113.096C59.1001 112.966 59.1201 112.616 59.1501 112.036C59.1801 111.456 59.2 110.936 59.2 110.476C59.2 109.566 59.1101 108.916 58.9301 108.536C59.3701 108.326 59.8101 108.216 60.2501 108.216C60.5301 108.216 60.7401 108.286 60.8701 108.416C61.0001 108.546 61.0601 108.766 61.0601 109.076C61.0601 109.266 61.04 109.666 61.01 110.266C60.97 110.866 60.95 111.366 60.95 111.766C60.95 112.556 61.04 113.176 61.23 113.636C60.8 113.856 60.3601 113.956 59.9101 113.956ZM60.9001 105.726C61.0701 105.896 61.1601 106.116 61.1601 106.376C61.1601 106.656 61.0601 106.896 60.8501 107.086C60.6401 107.286 60.39 107.386 60.08 107.386C59.81 107.386 59.5901 107.306 59.4301 107.146C59.2701 106.986 59.1801 106.776 59.1801 106.516C59.1801 106.226 59.2801 105.976 59.4901 105.776C59.6901 105.566 59.94 105.466 60.23 105.466C60.5 105.466 60.7301 105.556 60.9001 105.726Z" fill="#4AA147"/>
<path d="M67.1201 108.167C67.4401 108.167 67.68 108.267 67.86 108.457C68.03 108.647 68.1201 108.917 68.1201 109.267C68.1201 110.377 67.6001 111.577 66.5601 112.867C65.9101 113.677 65.28 114.087 64.67 114.087C64.26 114.087 63.95 113.907 63.73 113.547C63.6 113.337 63.4001 112.807 63.1301 111.957C62.6601 110.477 62.2201 109.597 61.8201 109.307C62.2301 108.587 62.6801 108.227 63.1601 108.227C63.4601 108.227 63.71 108.397 63.89 108.737C64.01 108.967 64.1801 109.477 64.4101 110.267C64.6401 111.107 64.7901 111.587 64.8401 111.727C64.9601 112.057 65.0701 112.227 65.1801 112.227C65.2701 112.227 65.41 112.097 65.58 111.827C66.06 111.117 66.29 110.397 66.29 109.667C66.29 109.247 66.1701 108.887 65.9401 108.607C66.2901 108.317 66.6801 108.167 67.1201 108.167Z" fill="#4AA147"/>
<path d="M73.92 113.086C73.92 113.376 73.75 113.606 73.42 113.766C73.08 113.936 72.6 114.026 71.98 114.026C70.96 114.026 70.1701 113.776 69.6201 113.266C69.0701 112.766 68.8 112.056 68.8 111.136C68.8 110.246 69.08 109.516 69.64 108.966C70.2 108.406 70.93 108.136 71.83 108.136C72.57 108.136 73.1701 108.326 73.6301 108.716C74.0801 109.096 74.3 109.586 74.3 110.176C74.3 110.686 74.12 111.036 73.76 111.236C73.42 111.426 72.85 111.516 72.04 111.516C71.49 111.516 70.9801 111.486 70.5001 111.416V111.436C70.5001 111.856 70.64 112.186 70.92 112.416C71.2 112.646 71.6101 112.756 72.1301 112.756C72.7401 112.756 73.2201 112.616 73.5601 112.336C73.8001 112.616 73.92 112.866 73.92 113.086ZM71.8 110.616C72.09 110.616 72.2901 110.586 72.4001 110.536C72.5301 110.476 72.6001 110.346 72.6001 110.166C72.6001 109.906 72.52 109.696 72.36 109.536C72.2 109.376 71.9801 109.296 71.7201 109.296C71.0701 109.296 70.6801 109.706 70.5701 110.526C71.1401 110.586 71.55 110.616 71.8 110.616Z" fill="#4AA147"/>
<path d="M78.99 112.487C79.37 112.487 79.66 112.407 79.88 112.257C80.09 112.107 80.19 111.906 80.19 111.656C80.19 111.456 80.1 111.267 79.91 111.087C79.81 110.987 79.55 110.807 79.14 110.527C78.59 110.147 78.2199 109.857 78.0399 109.637C77.7699 109.327 77.64 108.946 77.64 108.496C77.64 107.836 77.89 107.257 78.38 106.767C79.09 106.037 79.9799 105.677 81.0399 105.677C81.6899 105.677 82.02 105.937 82.02 106.457C82.02 106.777 81.89 107.127 81.63 107.517C81.31 107.387 80.98 107.316 80.64 107.316C80.26 107.316 79.96 107.386 79.74 107.536C79.53 107.676 79.42 107.866 79.42 108.096C79.42 108.326 79.5299 108.547 79.7599 108.757C79.8699 108.857 80.18 109.087 80.69 109.427C81.5 109.977 81.91 110.606 81.91 111.316C81.91 112.046 81.63 112.667 81.06 113.177C80.42 113.767 79.61 114.066 78.65 114.066C77.86 114.066 77.46 113.757 77.46 113.137C77.46 112.827 77.57 112.506 77.8 112.156C78.18 112.386 78.57 112.487 78.99 112.487Z" fill="#4AA147"/>
<path d="M88.44 112.946C87.8 113.716 86.95 114.096 85.9 114.096C84.98 114.096 84.23 113.826 83.65 113.276C83.07 112.736 82.78 112.036 82.78 111.176C82.78 110.286 83.09 109.556 83.71 108.976C84.33 108.396 85.12 108.106 86.09 108.106C86.99 108.106 87.72 108.376 88.29 108.916C88.86 109.456 89.14 110.136 89.14 110.966C89.14 111.716 88.91 112.376 88.44 112.946ZM84.95 112.176C85.21 112.446 85.55 112.576 85.97 112.576C86.37 112.576 86.7 112.436 86.97 112.156C87.24 111.866 87.38 111.506 87.38 111.076C87.38 110.626 87.25 110.266 86.99 109.996C86.73 109.726 86.39 109.596 85.97 109.596C85.55 109.596 85.21 109.736 84.95 110.016C84.68 110.296 84.55 110.666 84.55 111.136C84.56 111.566 84.69 111.916 84.95 112.176Z" fill="#4AA147"/>
<path d="M91.04 113.956C90.72 113.956 90.5 113.876 90.39 113.716C90.29 113.566 90.23 113.286 90.23 112.866C90.23 112.746 90.25 112.206 90.3 111.226C90.34 110.246 90.36 109.326 90.36 108.466C90.36 107.176 90.25 106.326 90.03 105.906C90.49 105.686 90.93 105.576 91.35 105.576C91.64 105.576 91.85 105.646 91.98 105.786C92.1 105.926 92.17 106.156 92.17 106.486C92.17 106.636 92.15 107.156 92.11 108.046C92.07 108.946 92.05 109.766 92.05 110.506C92.05 112.136 92.16 113.186 92.37 113.636C91.86 113.856 91.42 113.956 91.04 113.956Z" fill="#4AA147"/>
<path d="M98.11 113.966C97.83 113.966 97.64 113.896 97.51 113.766C97.39 113.636 97.34 113.426 97.34 113.136V112.996C96.83 113.716 96.19 114.076 95.41 114.076C94.14 114.076 93.5 113.356 93.5 111.906C93.5 111.746 93.51 111.476 93.53 111.096C93.55 110.716 93.56 110.416 93.56 110.206C93.56 109.396 93.47 108.836 93.28 108.516C93.72 108.306 94.15 108.196 94.57 108.196C94.86 108.196 95.07 108.256 95.2 108.376C95.33 108.506 95.39 108.706 95.39 108.996C95.39 109.186 95.38 109.516 95.35 109.986C95.32 110.456 95.3 110.826 95.3 111.106C95.3 111.646 95.36 112.016 95.47 112.246C95.59 112.486 95.81 112.606 96.12 112.606C96.54 112.606 96.92 112.376 97.27 111.906C97.29 111.586 97.29 111.356 97.29 111.206C97.29 109.866 97.17 108.986 96.94 108.566C97.46 108.326 97.91 108.206 98.27 108.206C98.59 108.206 98.8 108.286 98.92 108.436C99.03 108.586 99.09 108.846 99.09 109.216C99.09 109.306 99.08 109.606 99.06 110.136C99.04 110.656 99.03 111.136 99.03 111.576C99.03 112.576 99.13 113.256 99.32 113.626C98.88 113.856 98.48 113.966 98.11 113.966Z" fill="#4AA147"/>
<path d="M103.64 108.406C103.99 108.406 104.16 108.546 104.16 108.836C104.16 109.076 104.06 109.346 103.85 109.666C103.7 109.606 103.48 109.576 103.21 109.576L102.99 109.586C102.83 109.596 102.67 109.606 102.52 109.606C102.46 110.356 102.43 110.956 102.43 111.406C102.43 112.256 102.66 112.676 103.11 112.676C103.27 112.676 103.42 112.616 103.57 112.496C103.74 112.716 103.82 112.936 103.82 113.136C103.82 113.396 103.7 113.606 103.45 113.756C103.2 113.916 102.84 113.996 102.39 113.996C101.25 113.996 100.68 113.376 100.68 112.136C100.68 111.916 100.7 111.556 100.74 111.036C100.78 110.436 100.81 109.976 100.82 109.636C100.64 109.656 100.48 109.676 100.35 109.676C99.97 109.676 99.78 109.526 99.78 109.226C99.78 109.036 99.85 108.806 99.98 108.516C100.1 108.536 100.25 108.556 100.42 108.556C100.5 108.556 100.66 108.546 100.88 108.536L100.89 108.206C100.89 107.676 100.81 107.246 100.66 106.936C101.11 106.716 101.51 106.606 101.86 106.606C102.39 106.606 102.65 106.876 102.65 107.406C102.65 107.466 102.62 107.816 102.57 108.466C103.37 108.436 103.72 108.406 103.64 108.406Z" fill="#4AA147"/>
<path d="M105.81 113.956C105.51 113.956 105.31 113.886 105.19 113.756C105.07 113.626 105.01 113.406 105.01 113.096C105.01 112.966 105.03 112.616 105.06 112.036C105.09 111.456 105.11 110.936 105.11 110.476C105.11 109.566 105.02 108.916 104.84 108.536C105.28 108.326 105.72 108.216 106.16 108.216C106.44 108.216 106.65 108.286 106.78 108.416C106.91 108.546 106.97 108.766 106.97 109.076C106.97 109.266 106.95 109.666 106.92 110.266C106.88 110.866 106.86 111.366 106.86 111.766C106.86 112.556 106.95 113.176 107.14 113.636C106.71 113.856 106.27 113.956 105.81 113.956ZM106.81 105.726C106.98 105.896 107.07 106.116 107.07 106.376C107.07 106.656 106.97 106.896 106.76 107.086C106.55 107.286 106.3 107.386 105.99 107.386C105.72 107.386 105.5 107.306 105.34 107.146C105.18 106.986 105.09 106.776 105.09 106.516C105.09 106.226 105.19 105.976 105.4 105.776C105.6 105.566 105.85 105.466 106.14 105.466C106.41 105.466 106.63 105.556 106.81 105.726Z" fill="#4AA147"/>
<path d="M113.7 112.946C113.06 113.716 112.21 114.096 111.16 114.096C110.24 114.096 109.49 113.826 108.91 113.276C108.33 112.736 108.04 112.036 108.04 111.176C108.04 110.286 108.35 109.556 108.97 108.976C109.59 108.396 110.38 108.106 111.35 108.106C112.25 108.106 112.98 108.376 113.55 108.916C114.12 109.456 114.4 110.136 114.4 110.966C114.4 111.716 114.17 112.376 113.7 112.946ZM110.22 112.176C110.48 112.446 110.82 112.576 111.24 112.576C111.64 112.576 111.97 112.436 112.24 112.156C112.51 111.866 112.65 111.506 112.65 111.076C112.65 110.626 112.52 110.266 112.26 109.996C112 109.726 111.66 109.596 111.24 109.596C110.82 109.596 110.48 109.736 110.22 110.016C109.95 110.296 109.82 110.666 109.82 111.136C109.82 111.566 109.95 111.916 110.22 112.176Z" fill="#4AA147"/>
<path d="M121.43 113.647C121.01 113.857 120.57 113.957 120.12 113.957C119.82 113.957 119.61 113.897 119.49 113.767C119.36 113.647 119.3 113.437 119.3 113.147C119.3 112.957 119.31 112.627 119.34 112.177C119.36 111.727 119.37 111.367 119.37 111.117C119.37 110.567 119.3 110.177 119.17 109.947C119.03 109.697 118.78 109.577 118.42 109.577C118.09 109.577 117.73 109.717 117.34 109.977C117.31 110.957 117.29 111.507 117.29 111.647C117.29 112.587 117.38 113.256 117.57 113.656C117.14 113.866 116.7 113.966 116.26 113.966C115.95 113.966 115.74 113.896 115.62 113.746C115.5 113.606 115.45 113.357 115.45 113.007C115.45 112.857 115.47 112.477 115.52 111.867C115.56 111.257 115.58 110.727 115.58 110.267C115.58 109.357 115.49 108.707 115.31 108.327C115.66 108.217 115.97 108.167 116.24 108.167C116.9 108.167 117.26 108.427 117.3 108.957C117.92 108.437 118.54 108.167 119.16 108.167C119.87 108.167 120.37 108.367 120.69 108.777C121 109.177 121.15 109.807 121.15 110.677C121.15 110.837 121.15 111.037 121.14 111.277C121.13 111.517 121.13 111.687 121.13 111.767C121.13 112.687 121.22 113.307 121.41 113.637V113.647H121.43Z" fill="#4AA147"/>
<path d="M123.5 112.826C123.72 112.826 123.89 112.786 124.03 112.696C124.16 112.616 124.22 112.506 124.22 112.376C124.22 112.246 124.14 112.116 123.98 111.986C123.95 111.956 123.73 111.806 123.34 111.536C123 111.306 122.76 111.106 122.63 110.926C122.47 110.716 122.38 110.456 122.38 110.156C122.38 109.606 122.62 109.126 123.11 108.726C123.61 108.316 124.23 108.106 124.96 108.106C125.52 108.106 125.8 108.316 125.8 108.746C125.8 109.006 125.69 109.266 125.46 109.536C125.22 109.416 124.99 109.366 124.76 109.366C124.51 109.366 124.31 109.416 124.16 109.516C124.02 109.616 123.95 109.736 123.95 109.876C123.95 110.056 124.12 110.276 124.45 110.526C124.98 110.926 125.3 111.186 125.4 111.296C125.64 111.546 125.76 111.836 125.76 112.156C125.76 112.686 125.53 113.136 125.08 113.506C124.61 113.886 124.01 114.086 123.27 114.086C122.62 114.086 122.29 113.846 122.29 113.376C122.29 113.146 122.39 112.876 122.6 112.576C122.9 112.746 123.2 112.826 123.5 112.826Z" fill="#4AA147"/>
</svg>
